<?xml version="1.0" encoding="utf-8"?>
<!-- Generator: Adobe Illustrator 22.1.0, SVG Export Plug-In . SVG Version: 6.00 Build 0)  -->
<svg version="1.1" id="Capa_1" xmlns="http://www.w3.org/2000/svg" xmlns:xlink="http://www.w3.org/1999/xlink" x="0px" y="0px"
	 viewBox="0 0 512 512" style="enable-background:new 0 0 512 512;" xml:space="preserve">
<style type="text/css">
	.st0{fill:#2985FD;}
	.st1{fill:none;stroke:#6FA8FA;stroke-width:8;stroke-miterlimit:10;}
	.st2{fill:none;stroke:#6FA8FA;stroke-width:5;stroke-miterlimit:10;}
	.st3{fill:none;stroke:#DBE9F6;stroke-width:5;stroke-miterlimit:10;}
</style>
<g>
	<g>
		<path class="st0" d="M300.3,301.8c3.4,0,6.1-2.7,6.1-6.1v-13.8c0-10.5-8.5-19-19-19h-64.8c-10.5,0-19,8.5-19,19v60.8
			c0,3.4,2.7,6.1,6.1,6.1h90.8c3.4,0,6.1-2.7,6.1-6.1v-18.6c0-3.4-2.7-6.1-6.1-6.1s-6.1,2.7-6.1,6.1v12.6H261V297l16.4-21.9h9.9
			c3.8,0,6.9,3.1,6.9,6.9v13.8C294.2,299,296.9,301.8,300.3,301.8z M248.8,336.6h-33.2v-54.7c0-3.8,3.1-6.9,6.9-6.9h9.9l16.4,21.9
			L248.8,336.6L248.8,336.6z M254.9,284.8l-7.3-9.7h14.6L254.9,284.8z"/>
	</g>
</g>
<g>
	<g>
		<path class="st0" d="M254.9,178.6c-22.5,0-35.3,10.1-42,18.5c-7.3,9.2-9.2,18.4-9.3,18.8c-0.7,3.7,2.2,7.3,6,7.3h7.4
			c2.9,18.4,18.9,32.4,38,32.4c21.2,0,38.5-17.3,38.5-38.5C293.4,195.8,276.1,178.6,254.9,178.6z M254.9,243.4
			c-12.4,0-22.9-8.7-25.6-20.3h51.3C277.8,234.8,267.3,243.4,254.9,243.4z M218.2,211c4.2-8.2,14.2-20.3,36.7-20.3
			c12.4,0,22.9,8.7,25.6,20.3H218.2z"/>
	</g>
</g>
<g>
	<g>
		<path class="st0" d="M409.3,304.1c16.4-20.6,29.6-42,39.2-63.7c30.8-69.3-5.6-138.4-57-162.7c-24.2-11.4-50.6-12.4-74.4-2.9
			c-24.2,9.7-45.5,30.1-62.2,59.4c-16.7-29.3-38-49.7-62.2-59.4c-23.8-9.5-50.2-8.5-74.4,2.9C66.9,102,30.5,171,61.3,240.4
			c27.3,61.5,77.8,108.4,115.3,136.9c40.6,30.8,74.2,47,75.6,47.7c1.6,0.8,3.6,0.8,5.2,0c1.2-0.6,28.7-13.8,63.9-39
			c6.3,32.8,35.1,57.6,69.7,57.6c39.1,0,70.9-31.8,70.9-70.9C462,339.9,439.6,312.2,409.3,304.1z M320.2,371.9
			c-30.8,22.7-57.1,36.7-65.3,40.8c-8.6-4.4-37.7-19.8-70.9-45.1c-36.4-27.6-85.3-73-111.6-132.1c-27.8-62.6,4.8-124.9,51.1-146.7
			c37.3-17.6,90-10.8,126,61.1c2.2,4.4,8.7,4.4,10.9,0c36-71.9,88.7-78.8,126-61.1c46.2,21.8,78.9,84.1,51.1,146.7
			c-10.1,22.6-24.2,45-42,66.4c-1.4-0.1-2.9-0.1-4.4-0.1C352.2,301.8,320.6,333.2,320.2,371.9z M391.1,431.5
			c-32.4,0-58.8-26.4-58.8-58.8s26.4-58.8,58.8-58.8s58.8,26.4,58.8,58.8S423.5,431.5,391.1,431.5z"/>
	</g>
</g>
<g>
	<g>
		<path class="st0" d="M423.5,366.6h-26.3v-26.3c0-3.4-2.7-6.1-6.1-6.1s-6.1,2.7-6.1,6.1v26.3h-26.3c-3.4,0-6.1,2.7-6.1,6.1
			s2.7,6.1,6.1,6.1H385v26.3c0,3.4,2.7,6.1,6.1,6.1s6.1-2.7,6.1-6.1v-26.3h26.3c3.4,0,6.1-2.7,6.1-6.1S426.9,366.6,423.5,366.6z"/>
	</g>
</g>
<g>
	<g>
		<path class="st0" d="M358.7,139.7c-17.7,0-32,14.4-32,32s14.4,32,32,32c17.7,0,32-14.4,32-32S376.3,139.7,358.7,139.7z
			 M358.7,191.5c-11,0-19.9-8.9-19.9-19.9c0-10.9,8.9-19.9,19.9-19.9s19.9,8.9,19.9,19.9C378.5,182.6,369.6,191.5,358.7,191.5z"/>
	</g>
</g>
<g>
	<g>
		<path class="st0" d="M384.6,211h-51.9c-6.9,0-12.6,5.6-12.6,12.6V282c0,3.4,2.7,6.1,6.1,6.1H391c3.4,0,6.1-2.7,6.1-6.1v-58.4
			C397.2,216.6,391.5,211,384.6,211z M385,275.8h-52.7v-52.3c0-0.2,0.2-0.4,0.4-0.4h51.9c0.2,0,0.4,0.2,0.4,0.4L385,275.8L385,275.8
			z"/>
	</g>
</g>
<g>
	<g>
		<path class="st0" d="M151.2,139.7c-17.7,0-32,14.4-32,32s14.4,32,32,32c17.7,0,32-14.4,32-32C183.2,154,168.8,139.7,151.2,139.7z
			 M151.2,191.5c-10.9,0-19.9-8.9-19.9-19.9c0-10.9,8.9-19.9,19.9-19.9c10.9,0,19.9,8.9,19.9,19.9
			C171,182.6,162.1,191.5,151.2,191.5z"/>
	</g>
</g>
<g>
	<g>
		<path class="st0" d="M177.1,211h-51.9c-6.9,0-12.6,5.6-12.6,12.6V282c0,3.4,2.7,6.1,6.1,6.1h64.8c3.4,0,6.1-2.7,6.1-6.1v-58.4
			C189.7,216.6,184,211,177.1,211z M177.5,275.8h-52.7v-52.3c0-0.2,0.2-0.4,0.4-0.4h51.9c0.2,0,0.4,0.2,0.4,0.4V275.8L177.5,275.8z"
			/>
	</g>
</g>
<polygon class="st1" points="36,458 28.2,451.2 18.2,453.8 22.2,444.2 16.7,435.5 27,436.4 33.6,428.4 35.9,438.5 45.5,442.3 
	36.7,447.7 "/>
<polygon class="st2" points="315,475 303.4,475.5 297.3,485.4 293.2,474.5 281.9,471.7 291,464.5 290.2,452.9 299.9,459.3 
	310.6,454.9 307.5,466.1 "/>
<polygon class="st2" points="39,32 35.5,29.3 31.2,30.7 32.7,26.5 30,22.9 34.5,23 37.1,19.4 38.4,23.6 42.6,25 39,27.5 "/>
<polygon class="st2" points="268,55 265.6,50.2 260.4,49.5 264.2,45.8 263.3,40.5 268,43 272.7,40.5 271.8,45.8 275.6,49.5 
	270.4,50.2 "/>
<polygon class="st2" points="484,190.7 480.4,183.5 472.4,182.3 478.2,176.7 476.9,168.7 484,172.5 491.1,168.7 489.8,176.7 
	495.6,182.3 487.6,183.5 "/>
<circle class="st3" cx="133.7" cy="458.2" r="14.6"/>
<circle class="st3" cx="42.4" cy="268.9" r="6.1"/>
<circle class="st3" cx="126.9" cy="33.6" r="14.2"/>
<circle class="st3" cx="472.6" cy="30" r="10.6"/>
<circle class="st3" cx="368.3" cy="53.1" r="5.3"/>
<circle class="st3" cx="484.1" cy="280.4" r="11.5"/>
</svg>
