<?xml version="1.0" encoding="utf-8"?>
<!-- Generator: Adobe Illustrator 22.1.0, SVG Export Plug-In . SVG Version: 6.00 Build 0)  -->
<svg version="1.1" id="Capa_1" xmlns="http://www.w3.org/2000/svg" xmlns:xlink="http://www.w3.org/1999/xlink" x="0px" y="0px"
	 viewBox="0 0 512 512" style="enable-background:new 0 0 512 512;" xml:space="preserve">
<style type="text/css">
	.st0{fill:#2985FD;}
	.st1{fill:none;stroke:#6FA8FA;stroke-width:8;stroke-miterlimit:10;}
	.st2{fill:none;stroke:#6FA8FA;stroke-width:5;stroke-miterlimit:10;}
	.st3{fill:none;stroke:#DBE9F6;stroke-width:5;stroke-miterlimit:10;}
</style>
<g>
	<g>
		<path class="st0" d="M419.4,275H414v-48.7c0-7.7-3.8-14.5-9.7-18.7V201c0-9.6-7.8-17.4-17.4-17.4h-4l15.4-22.7
			c5.2-7.6,3.2-18-4.4-23.2L289.1,66.2c-3.7-2.5-8.1-3.4-12.5-2.6c-4.4,0.8-8.2,3.3-10.7,7l-90.5,132.8h-25.2l6.1-61.5
			c0.1-0.7,0.5-1.3,1.1-1.5c7.8-3,14.6-8.5,19.1-15.5c0.4-0.6,1-0.9,1.7-0.8l39.5,3.9c2.8,0.3,5.3-1.8,5.6-4.6
			c0.3-2.8-1.8-5.3-4.6-5.6l-39.5-3.9c-4.6-0.4-9,1.7-11.4,5.5c-3.3,5.2-8.3,9.2-14,11.4c-4.3,1.6-7.3,5.5-7.8,10.2l-6.2,62.5h-6.6
			l9.6-97.2c0.3-3.5,3.5-6.1,7-5.7l79.8,7.9c2.8,0.3,5.3-1.8,5.6-4.6s-1.8-5.3-4.6-5.6L151,90.2c-9.1-0.9-17.3,5.8-18.2,15
			l-7.7,78.4h-13.2c-9.6,0-17.4,7.8-17.4,17.4v4.5c-7.9,3.6-13.3,11.6-13.3,20.8v175.5c0,12.6,10.3,22.9,22.9,22.9h287.3
			c12.6,0,22.9-10.3,22.9-22.9v-48.7h5.4c6.4,0,11.6-5.2,11.6-11.6v-54.9C431,280.2,425.8,275,419.4,275z M386.9,193.8L386.9,193.8
			c3.9,0,7.1,3.2,7.1,7.1v2.6c-0.9-0.1-1.9-0.2-2.9-0.2h-21.8l6.5-9.6H386.9z M274.4,76.4c1-1.4,2.4-2.4,4.1-2.7
			c0.4-0.1,0.8-0.1,1.2-0.1c1.3,0,2.5,0.4,3.6,1.1l104.8,71.4c2.9,2,3.7,6,1.7,8.9l-32.9,48.3h-7.9l16.2-23.7
			c2.6-3.8,2.8-8.7,0.6-12.8c-3-5.4-4.2-11.7-3.4-17.8c0.6-4.5-1.4-9-5.2-11.6l-54.3-37c-3.8-2.6-8.7-2.8-12.7-0.6
			c-5.4,3-11.7,4.1-17.8,3.3c-4.5-0.6-9.1,1.4-11.7,5.2l-64.7,95h-7.9L274.4,76.4z M276.7,163.9c-22.4,0-40.8,17.5-42.3,39.5h-26.1
			l60.8-89.2c0,0,0,0,0,0c0.3-0.5,0.9-0.8,1.5-0.8c0.1,0,0.2,0,0.2,0c8.3,1.2,16.9-0.4,24.2-4.5c0.6-0.3,1.3-0.3,1.9,0.1l54.3,37
			c0.6,0.4,0.9,1.1,0.8,1.7c-1.1,8.3,0.6,16.9,4.7,24.2c0.3,0.6,0.3,1.3-0.1,1.9l-20.1,29.5H319
			C317.5,181.3,299.1,163.9,276.7,163.9z M308.7,203.4h-64c1.5-16.4,15.3-29.2,32-29.2C293.4,174.2,307.2,187,308.7,203.4z
			 M104.6,201c0-3.9,3.2-7.1,7.1-7.1H124l-0.9,9.6h-18.4V201z M91.3,226.3c0-6.9,5.6-12.6,12.6-12.6h287.3c6.9,0,12.6,5.6,12.6,12.6
			v14.3H91.3V226.3z M403.7,401.8c0,6.9-5.6,12.6-12.6,12.6H103.9c-6.9,0-12.6-5.6-12.6-12.6v-14.3h27.8c2.8,0,5.1-2.3,5.1-5.1
			c0-2.8-2.3-5.1-5.1-5.1H91.3V250.9h312.4V275h-48.9h0c-15.4,0-28.8,9-35.1,22c0,0,0,0.1-0.1,0.1c-0.1,0.1-0.1,0.2-0.2,0.3
			c-0.8,1.6-1.4,3.3-1.9,5c0,0,0,0,0,0c-1.1,3.7-1.8,7.6-1.8,11.6c0,21.5,17.5,39,39,39h0h48.9v24.1H152c-2.8,0-5.1,2.3-5.1,5.1
			c0,2.8,2.3,5.1,5.1,5.1h251.7V401.8z M420.7,341.5c0,0.7-0.6,1.3-1.3,1.3h-64.7c-10.9,0-20.4-6.1-25.3-15.1
			c-0.2-0.4-0.4-0.8-0.6-1.2c-0.4-0.8-0.8-1.7-1.1-2.6c-1.1-3.1-1.7-6.4-1.7-9.9s0.6-6.8,1.7-9.9c0.3-0.9,0.7-1.7,1.1-2.6
			c0.2-0.4,0.4-0.8,0.6-1.2c4.9-9,14.4-15.1,25.3-15.1h64.7c0.7,0,1.3,0.6,1.3,1.3L420.7,341.5L420.7,341.5z"/>
	</g>
</g>
<g>
	<g>
		<path class="st0" d="M356,293.1c-11.5,0-20.9,9.4-20.9,20.9s9.4,20.9,20.9,20.9c11.5,0,20.9-9.4,20.9-20.9S367.5,293.1,356,293.1z
			 M356,324.6c-5.8,0-10.6-4.8-10.6-10.6s4.8-10.6,10.6-10.6s10.6,4.8,10.6,10.6S361.8,324.6,356,324.6z"/>
	</g>
</g>
<polygon class="st1" points="30,403.7 22.2,396.9 12.2,399.5 16.2,390 10.7,381.2 21,382.1 27.6,374.2 29.9,384.2 39.5,388.1 
	30.7,393.4 "/>
<polygon class="st2" points="359.1,476.9 347.5,477.4 341.4,487.3 337.3,476.4 326,473.6 335.1,466.4 334.3,454.8 343.9,461.2 
	354.7,456.9 351.6,468 "/>
<polygon class="st2" points="59.2,35.2 55.7,32.5 51.4,33.9 52.9,29.7 50.3,26.1 54.7,26.2 57.3,22.6 58.6,26.9 62.9,28.2 
	59.2,30.8 "/>
<polygon class="st2" points="215.9,55 213.5,50.2 208.3,49.5 212.1,45.8 211.2,40.5 215.9,43 220.6,40.5 219.7,45.8 223.5,49.5 
	218.2,50.2 "/>
<polygon class="st2" points="467,267 463.4,259.8 455.4,258.6 461.2,253 459.9,245 467,248.8 474.1,245 472.8,253 478.6,258.6 
	470.6,259.8 "/>
<circle class="st3" cx="105" cy="472.7" r="14.6"/>
<circle class="st3" cx="50.5" cy="241" r="6.1"/>
<circle class="st3" cx="70.8" cy="138.5" r="14.2"/>
<circle class="st3" cx="466.9" cy="67.9" r="10.6"/>
<circle class="st3" cx="366.6" cy="83.7" r="5.3"/>
<circle class="st3" cx="455.4" cy="424.7" r="11.5"/>
</svg>
